<mxfile host="app.diagrams.net" modified="2023-05-03T07:34:34.377Z" agent="Mozilla/5.0 (Windows NT 10.0; Win64; x64) AppleWebKit/537.36 (KHTML, like Gecko) Chrome/112.0.0.0 Safari/537.36" etag="bVx4nnWRTytVRlgqOSyl" version="21.2.4" type="device">
  <diagram id="C5RBs43oDa-KdzZeNtuy" name="Page-1">
    <mxGraphModel dx="1120" dy="1564" grid="1" gridSize="10" guides="1" tooltips="1" connect="1" arrows="1" fold="1" page="1" pageScale="1" pageWidth="827" pageHeight="1169" math="0" shadow="0">
      <root>
        <mxCell id="WIyWlLk6GJQsqaUBKTNV-0" />
        <mxCell id="WIyWlLk6GJQsqaUBKTNV-1" parent="WIyWlLk6GJQsqaUBKTNV-0" />
        <mxCell id="WIyWlLk6GJQsqaUBKTNV-6" value="m=n%2" style="rhombus;whiteSpace=wrap;html=1;shadow=0;fontFamily=Helvetica;fontSize=12;align=center;strokeWidth=1;spacing=6;spacingTop=-4;" parent="WIyWlLk6GJQsqaUBKTNV-1" vertex="1">
          <mxGeometry x="170" y="39" width="100" height="80" as="geometry" />
        </mxCell>
        <mxCell id="WIyWlLk6GJQsqaUBKTNV-8" value="No" style="rounded=0;html=1;jettySize=auto;orthogonalLoop=1;fontSize=11;endArrow=block;endFill=0;endSize=8;strokeWidth=1;shadow=0;labelBackgroundColor=none;edgeStyle=orthogonalEdgeStyle;" parent="WIyWlLk6GJQsqaUBKTNV-1" target="WIyWlLk6GJQsqaUBKTNV-11" edge="1">
          <mxGeometry x="0.3333" y="20" relative="1" as="geometry">
            <mxPoint as="offset" />
            <mxPoint x="220" y="370" as="sourcePoint" />
            <Array as="points">
              <mxPoint x="221" y="370" />
              <mxPoint x="221" y="380" />
              <mxPoint x="220" y="380" />
            </Array>
          </mxGeometry>
        </mxCell>
        <mxCell id="WIyWlLk6GJQsqaUBKTNV-11" value="FIN" style="rounded=1;whiteSpace=wrap;html=1;fontSize=12;glass=0;strokeWidth=1;shadow=0;" parent="WIyWlLk6GJQsqaUBKTNV-1" vertex="1">
          <mxGeometry x="170" y="490" width="120" height="40" as="geometry" />
        </mxCell>
        <mxCell id="fRNsOSRjGbPOQX5tjPoz-0" value="INICIO" style="rounded=1;whiteSpace=wrap;html=1;" vertex="1" parent="WIyWlLk6GJQsqaUBKTNV-1">
          <mxGeometry x="160" y="-180" width="120" height="60" as="geometry" />
        </mxCell>
        <mxCell id="fRNsOSRjGbPOQX5tjPoz-1" value="" style="endArrow=classic;html=1;rounded=0;" edge="1" parent="WIyWlLk6GJQsqaUBKTNV-1" source="fRNsOSRjGbPOQX5tjPoz-0" target="fRNsOSRjGbPOQX5tjPoz-7">
          <mxGeometry width="50" height="50" relative="1" as="geometry">
            <mxPoint x="260" y="170" as="sourcePoint" />
            <mxPoint x="218" y="40" as="targetPoint" />
          </mxGeometry>
        </mxCell>
        <mxCell id="fRNsOSRjGbPOQX5tjPoz-2" value="&lt;ol style=&quot;padding: 0px; margin: 0px 0px 10px 2.5em; color: rgb(101, 101, 101); font-family: &amp;quot;Century Gothic&amp;quot;, Arial, Helvetica, sans-serif; font-size: 14px; text-align: left; background-color: rgb(255, 255, 255);&quot; id=&quot;yui_3_17_2_1_1683094139225_116&quot;&gt;&lt;li style=&quot;line-height: 20px;&quot; id=&quot;yui_3_17_2_1_1683094139225_137&quot;&gt;Un programa que imprima los nÃºmeros pares que se encuentran entre 0 y 100.&lt;br&gt;&lt;/li&gt;&lt;/ol&gt;" style="text;html=1;strokeColor=none;fillColor=none;align=center;verticalAlign=middle;whiteSpace=wrap;rounded=0;" vertex="1" parent="WIyWlLk6GJQsqaUBKTNV-1">
          <mxGeometry x="260" y="-123" width="570" height="41" as="geometry" />
        </mxCell>
        <mxCell id="fRNsOSRjGbPOQX5tjPoz-3" value="0&amp;lt;= m &amp;lt;=100" style="rhombus;whiteSpace=wrap;html=1;" vertex="1" parent="WIyWlLk6GJQsqaUBKTNV-1">
          <mxGeometry x="179" y="164" width="80" height="80" as="geometry" />
        </mxCell>
        <mxCell id="fRNsOSRjGbPOQX5tjPoz-4" value="" style="endArrow=classic;html=1;rounded=0;" edge="1" parent="WIyWlLk6GJQsqaUBKTNV-1" source="WIyWlLk6GJQsqaUBKTNV-6" target="fRNsOSRjGbPOQX5tjPoz-3">
          <mxGeometry width="50" height="50" relative="1" as="geometry">
            <mxPoint x="460" y="210" as="sourcePoint" />
            <mxPoint x="510" y="160" as="targetPoint" />
          </mxGeometry>
        </mxCell>
        <mxCell id="fRNsOSRjGbPOQX5tjPoz-5" value="" style="endArrow=classic;html=1;rounded=0;" edge="1" parent="WIyWlLk6GJQsqaUBKTNV-1" source="WIyWlLk6GJQsqaUBKTNV-6">
          <mxGeometry width="50" height="50" relative="1" as="geometry">
            <mxPoint x="460" y="170" as="sourcePoint" />
            <mxPoint x="280" y="350" as="targetPoint" />
            <Array as="points">
              <mxPoint x="350" y="80" />
              <mxPoint x="350" y="350" />
            </Array>
          </mxGeometry>
        </mxCell>
        <mxCell id="fRNsOSRjGbPOQX5tjPoz-6" value="" style="endArrow=classic;html=1;rounded=0;entryX=0.18;entryY=0.363;entryDx=0;entryDy=0;entryPerimeter=0;" edge="1" parent="WIyWlLk6GJQsqaUBKTNV-1" source="fRNsOSRjGbPOQX5tjPoz-3" target="WIyWlLk6GJQsqaUBKTNV-6">
          <mxGeometry width="50" height="50" relative="1" as="geometry">
            <mxPoint x="460" y="270" as="sourcePoint" />
            <mxPoint x="150" y="70" as="targetPoint" />
            <Array as="points">
              <mxPoint x="320" y="210" />
              <mxPoint x="320" y="290" />
              <mxPoint x="150" y="290" />
              <mxPoint x="150" y="80" />
              <mxPoint x="170" y="80" />
            </Array>
          </mxGeometry>
        </mxCell>
        <mxCell id="fRNsOSRjGbPOQX5tjPoz-7" value="&quot;ingrese 100 numeros&quot;" style="shape=parallelogram;perimeter=parallelogramPerimeter;whiteSpace=wrap;html=1;fixedSize=1;" vertex="1" parent="WIyWlLk6GJQsqaUBKTNV-1">
          <mxGeometry x="145" y="-82" width="150" height="42" as="geometry" />
        </mxCell>
        <mxCell id="fRNsOSRjGbPOQX5tjPoz-8" value="n" style="rounded=0;whiteSpace=wrap;html=1;" vertex="1" parent="WIyWlLk6GJQsqaUBKTNV-1">
          <mxGeometry x="200" y="-11" width="40" height="31" as="geometry" />
        </mxCell>
        <mxCell id="fRNsOSRjGbPOQX5tjPoz-9" value="" style="endArrow=classic;html=1;rounded=0;" edge="1" parent="WIyWlLk6GJQsqaUBKTNV-1" source="fRNsOSRjGbPOQX5tjPoz-7" target="fRNsOSRjGbPOQX5tjPoz-8">
          <mxGeometry width="50" height="50" relative="1" as="geometry">
            <mxPoint x="460" y="70" as="sourcePoint" />
            <mxPoint x="510" y="20" as="targetPoint" />
          </mxGeometry>
        </mxCell>
        <mxCell id="fRNsOSRjGbPOQX5tjPoz-10" value="" style="endArrow=classic;html=1;rounded=0;" edge="1" parent="WIyWlLk6GJQsqaUBKTNV-1" source="fRNsOSRjGbPOQX5tjPoz-8" target="WIyWlLk6GJQsqaUBKTNV-6">
          <mxGeometry width="50" height="50" relative="1" as="geometry">
            <mxPoint x="230" y="21" as="sourcePoint" />
            <mxPoint x="230" y="50" as="targetPoint" />
          </mxGeometry>
        </mxCell>
        <mxCell id="fRNsOSRjGbPOQX5tjPoz-11" value="&quot;estos son pares&quot; ==m" style="shape=document;whiteSpace=wrap;html=1;boundedLbl=1;" vertex="1" parent="WIyWlLk6GJQsqaUBKTNV-1">
          <mxGeometry x="192" y="315" width="87" height="70" as="geometry" />
        </mxCell>
      </root>
    </mxGraphModel>
  </diagram>
</mxfile>
